<svg width="26" height="45" viewBox="0 0 26 45" fill="none" xmlns="http://www.w3.org/2000/svg">
<path d="M20.6596 44.1095L0.653034 24.1623C0.415567 23.9248 0.247757 23.6675 0.149604 23.3905C0.0498681 23.1135 0 22.8166 0 22.5C0 22.1834 0.0498681 21.8865 0.149604 21.6095C0.247757 21.3325 0.415567 21.0752 0.653034 20.8377L20.6596 0.831134C21.2137 0.277045 21.9063 0 22.7375 0C23.5686 0 24.281 0.296834 24.8747 0.890501C25.4683 1.48417 25.7652 2.17678 25.7652 2.96834C25.7652 3.75989 25.4683 4.45251 24.8747 5.04617L7.42084 22.5L24.8747 39.9538C25.4288 40.5079 25.7058 41.1902 25.7058 42.0008C25.7058 42.8129 25.409 43.5158 24.8153 44.1095C24.2216 44.7032 23.529 45 22.7375 45C21.9459 45 21.2533 44.7032 20.6596 44.1095Z" fill="#FFFFFF"/>
</svg>
