<svg width="32" height="32" viewBox="0 0 32 32" fill="none" xmlns="http://www.w3.org/2000/svg">
<path d="M14.5002 25.7333L5.70016 16.9333C5.56683 16.8 5.47216 16.6556 5.41616 16.5C5.36105 16.3444 5.3335 16.1778 5.3335 16C5.3335 15.8222 5.36105 15.6556 5.41616 15.5C5.47216 15.3444 5.56683 15.2 5.70016 15.0667L14.5002 6.26666C14.7446 6.02222 15.0499 5.89422 15.4162 5.88266C15.7833 5.872 16.1002 6 16.3668 6.26666C16.6335 6.51111 16.7726 6.81644 16.7842 7.18266C16.7948 7.54978 16.6668 7.86666 16.4002 8.13333L9.86683 14.6667H24.7668C25.1446 14.6667 25.4615 14.7942 25.7175 15.0493C25.9726 15.3053 26.1002 15.6222 26.1002 16C26.1002 16.3778 25.9726 16.6942 25.7175 16.9493C25.4615 17.2053 25.1446 17.3333 24.7668 17.3333H9.86683L16.4002 23.8667C16.6446 24.1111 16.7726 24.4222 16.7842 24.8C16.7948 25.1778 16.6668 25.4889 16.4002 25.7333C16.1557 26 15.8446 26.1333 15.4668 26.1333C15.0891 26.1333 14.7668 26 14.5002 25.7333Z" fill="#5A5D72"/>
</svg>
