<svg width="26" height="45" viewBox="0 0 26 45" fill="none" xmlns="http://www.w3.org/2000/svg">
<path d="M0.889328 44.1107C0.296443 43.5178 0 42.8158 0 42.0047C0 41.1953 0.296443 40.4941 0.889328 39.9012L18.2609 22.5296L0.830039 5.09881C0.27668 4.54545 0 3.85376 0 3.02372C0 2.19368 0.296443 1.48221 0.889328 0.889328C1.48221 0.296443 2.18419 0 2.99526 0C3.80474 0 4.50593 0.296443 5.09881 0.889328L25.0198 20.8696C25.2569 21.1067 25.4253 21.3636 25.5249 21.6403C25.6229 21.917 25.6719 22.2134 25.6719 22.5296C25.6719 22.8458 25.6229 23.1423 25.5249 23.419C25.4253 23.6957 25.2569 23.9526 25.0198 24.1897L5.03952 44.17C4.48616 44.7233 3.80474 45 2.99526 45C2.18419 45 1.48221 44.7036 0.889328 44.1107Z" fill="#FFFFFF"/>
</svg>
