<svg width="134" height="116" viewBox="0 0 134 116" fill="none" xmlns="http://www.w3.org/2000/svg">
<g clip-path="url(#clip0_427_841)">
<path d="M95.0763 31.9126L95.0698 37.1968C96.5289 37.3805 97.9907 37.5602 99.4552 37.7359L89.9429 46.8101L84.5623 39.2014C88.0592 36.7641 91.5639 34.3345 95.0763 31.9126Z" fill="#ADADAD"/>
<path d="M98.2037 32.1921C98.7217 31.8652 99.3004 31.6463 99.905 31.5486C100.51 31.451 101.128 31.4765 101.722 31.6238L120.253 17.5969L120.137 16.4143C113.887 19.7946 107.636 23.1758 101.384 26.558C98.2164 28.2707 95.0521 29.9827 91.8912 31.6942L74.5093 44.3838C73.8506 46.3502 73.9555 48.4916 74.8032 50.3825C75.258 51.3008 75.8911 52.1192 76.6656 52.7901C78.0438 53.9702 79.7653 54.676 81.5763 54.8037L98.7301 41.9566C101.285 39.3624 103.835 36.7675 106.382 34.172C111.523 28.9441 116.663 23.7158 121.8 18.4872L120.516 18.0162L102.093 32.0946C101.931 33.3533 101.305 34.5069 100.338 35.3299C99.5678 35.9602 98.6269 36.3463 97.6362 36.4383C97.837 36.6328 97.9706 36.8861 98.0179 37.1616C98.0652 37.4371 98.0237 37.7207 97.8994 37.9713C97.7885 38.159 97.6349 38.3179 97.451 38.4351C97.2671 38.5524 97.0582 38.6246 96.8412 38.6458C97.0372 38.8914 97.1301 39.2035 97.1003 39.5165C97.0706 39.8294 96.9206 40.1188 96.6818 40.3235C96.4768 40.4729 96.2297 40.5533 95.9762 40.5531C95.7227 40.5529 95.4759 40.4721 95.2715 40.3224C95.3585 40.4455 95.4195 40.5852 95.4505 40.7328C95.4816 40.8804 95.4822 41.0328 95.4522 41.1807C95.4222 41.3286 95.3623 41.4688 95.2762 41.5928C95.1901 41.7168 95.0796 41.8219 94.9514 41.9017C94.7388 41.991 94.5032 42.0094 94.2795 41.9541C94.0558 41.8988 93.856 41.7728 93.7098 41.5948C93.8216 41.8653 93.8337 42.1667 93.7439 42.4455C93.6542 42.7243 93.4685 42.9623 93.2198 43.1172C92.7216 43.3303 91.8869 42.9655 91.6759 42.0857C91.665 42.3655 91.5523 42.6319 91.3589 42.8347C91.1655 43.0375 90.9047 43.1628 90.6256 43.187C90.3465 43.2112 90.0683 43.1326 89.8433 42.9661C89.6182 42.7995 89.4619 42.5565 89.4037 42.2827L88.4812 42.9763L87.3726 41.5021L88.2287 40.8583C88.0017 40.7002 87.8373 40.4676 87.764 40.2009C87.6906 39.9342 87.7129 39.6501 87.827 39.3979C87.9411 39.1456 88.1398 38.9412 88.3887 38.8198C88.6376 38.6985 88.921 38.668 89.1899 38.7335C88.9525 38.594 88.7728 38.3744 88.683 38.1141C88.5931 37.8539 88.5991 37.57 88.6997 37.3135C88.7752 37.1686 88.8801 37.0409 89.0076 36.9386C89.1352 36.8363 89.2826 36.7617 89.4405 36.7195C89.5984 36.6773 89.7633 36.6684 89.9248 36.6935C90.0863 36.7185 90.2407 36.7768 90.3783 36.8648C90.2567 36.6574 90.2067 36.4158 90.2359 36.177C90.2651 35.9383 90.3718 35.7156 90.5398 35.5433C90.7127 35.8046 90.9788 35.9902 91.284 36.0621C91.5891 36.134 91.9104 36.0868 92.1822 35.9302C92.4541 35.7736 92.6561 35.5194 92.7471 35.2193C92.8381 34.9191 92.8112 34.5957 92.672 34.315C92.9459 34.2409 93.2378 34.2738 93.4881 34.407C93.7385 34.5402 93.9287 34.7638 94.02 35.0322C94.0823 34.8207 94.1942 34.6271 94.3465 34.4674C94.4987 34.3078 94.6869 34.1868 94.8952 34.1144C95.1768 34.0412 95.4744 34.0606 95.7438 34.1698C96.0132 34.279 96.2401 34.4722 96.3909 34.7207C96.6762 33.6899 97.3188 32.7936 98.2037 32.1921Z" fill="#C2C1C1"/>
<path d="M67.5851 59.3354C70.0617 56.6276 72.806 54.1774 75.7761 52.0222C76.9661 52.286 78.1328 52.6455 79.2647 53.0972C80.6217 53.6418 81.9218 54.3184 83.1463 55.1173L81.4426 63.3912C82.0381 63.8093 82.5794 64.2996 83.0542 64.8507C83.9354 65.8613 84.8758 66.9428 84.681 68.2432C84.5698 68.9787 84.0546 70.0297 83.1503 70.3174C81.5133 70.8444 80.3339 68.3157 77.8888 68.106C76.9021 68.0229 75.4763 68.2931 73.6259 69.9729C71.0183 73.6647 68.7729 76.6628 67.1546 78.751C62.2229 85.1134 58.4716 89.896 52.655 95.2045C49.8463 97.7608 47.5364 99.5439 46.1969 100.574C45.0604 101.429 44.0715 102.172 33.7664 108.687C30.3299 110.861 28.5677 111.944 26.3359 111.811C24.392 111.691 21.6474 110.761 21.0028 108.828C20.7161 107.97 20.6864 106.441 25.756 100.638C28.0884 97.9587 30.5847 95.4264 33.2305 93.0558C33.5261 92.7807 33.8941 92.5957 34.2911 92.5225C34.6881 92.4493 35.0977 92.4911 35.4715 92.6428C35.8454 92.7945 36.168 93.0499 36.4013 93.3789C36.6346 93.7079 36.769 94.0968 36.7886 94.4998C40.1196 92.621 43.234 90.3817 46.0755 87.8222C50.5538 83.7912 53.2121 79.9748 57.7504 73.3889C63.2394 65.4707 63.6433 63.6265 67.5851 59.3354Z" fill="#A4A9D5"/>
<path d="M65.7449 56.8881C69.0349 55.2625 72.1508 53.3061 75.0444 51.0491C75.1213 49.8326 75.0998 48.612 74.9801 47.3992C74.8336 45.9443 74.5445 44.5075 74.1169 43.1094L65.698 42.453C65.4606 41.7637 65.139 41.1063 64.7405 40.4959C64.0142 39.3688 63.2363 38.1652 61.9329 37.9913C61.1954 37.8939 60.0427 38.0972 59.5153 38.8861C58.5546 40.3124 60.6565 42.1475 60.1792 44.5547C59.9851 45.5257 59.3298 46.8205 57.2023 48.1318C52.9318 49.6121 49.431 50.9406 46.9756 51.9157C39.4915 54.8837 33.8583 57.1637 27.141 61.2744C23.9055 63.2631 21.5512 64.9872 20.1896 65.988C19.0531 66.8426 18.0642 67.5862 8.94528 75.678C5.90227 78.3759 4.37294 79.7682 3.88435 81.953C3.45648 83.8499 3.59139 86.7487 5.26923 87.9045C6.01073 88.4143 7.47211 88.8675 14.4568 85.6116C17.6762 84.1106 20.8017 82.4155 23.8159 80.5356C24.1616 80.3269 24.4407 80.0241 24.6206 79.6627C24.8004 79.3013 24.8735 78.8962 24.8313 78.4949C24.789 78.0937 24.6333 77.7129 24.3822 77.3973C24.1311 77.0816 23.7951 76.8442 23.4136 76.7128C26.1432 74.0343 29.1591 71.6639 32.4068 69.6445C37.5224 66.4612 41.9267 64.9668 49.5137 62.4351C58.6444 59.3599 60.5282 59.4838 65.7449 56.8881Z" fill="#A4A9D5"/>
<path d="M74.969 47.3845L74.1058 43.0947L63.6959 42.118C63.422 41.8737 63.1724 41.6035 62.9505 41.3111C62.1551 40.2533 62.2792 39.5888 61.7002 39.0953C61.1212 38.6018 59.9775 38.4175 59.4987 38.864C58.6133 39.6914 60.6758 41.9657 60.1626 44.5326C59.9685 45.5036 59.3132 46.7984 57.1857 48.1097C52.9152 49.59 49.4144 50.9185 46.959 51.8936C39.4748 54.8616 33.8417 57.1416 27.1244 61.2523C23.8889 63.241 21.5346 64.9651 20.173 65.9659C20.0033 66.0935 19.8409 66.2156 19.6527 66.3571C14.3937 70.3868 13.5022 71.9283 8.92868 75.6559C6.65853 77.5072 5.15016 78.4972 4.26659 80.7483C3.98501 81.4411 3.79318 82.1671 3.69582 82.9084C24.4243 65.7725 48.8037 53.6144 74.9579 47.3697L74.969 47.3845Z" fill="#B9C2E4"/>
<path d="M67.5853 59.3353C70.0619 56.6276 72.8062 54.1774 75.7762 52.0221L79.2649 53.0972C76.4291 56.5162 72.163 61.7204 67.1041 68.1902C56.064 82.2615 53.9254 86.1775 49.0049 91.3949C43.7358 96.9553 35.2282 104.062 21.4465 109.648C21.2538 109.402 21.1039 109.124 21.0029 108.828C20.3213 106.808 22.3847 104.904 25.7561 100.638C27.939 97.824 30.448 95.2788 33.2307 93.0558C33.5263 92.7807 33.8942 92.5956 34.2913 92.5224C34.6883 92.4493 35.0978 92.491 35.4717 92.6427C35.8456 92.7945 36.1681 93.0499 36.4015 93.3788C36.6348 93.7078 36.7692 94.0967 36.7888 94.4998C40.1198 92.621 43.2342 90.3816 46.0757 87.8221C50.554 83.7912 53.2123 79.9748 57.7506 73.3888C63.2396 65.4707 63.6435 63.6264 67.5853 59.3353Z" fill="#B9C2E4"/>
</g>
<defs>
<clipPath id="clip0_427_841">
<rect width="43.3333" height="135" fill="white" transform="translate(107.898) rotate(53.0583)"/>
</clipPath>
</defs>
</svg>
