<svg width="107" height="83" viewBox="0 0 107 83" fill="none" xmlns="http://www.w3.org/2000/svg">
<g clip-path="url(#clip0_492_3867)">
<path d="M103.4 67.6597C103.083 68.0938 102.62 68.3996 102.095 68.5211L43.5576 82.7366V19.3235L105.398 10.4189L103.746 66.0028C103.853 66.579 103.728 67.1739 103.4 67.6597Z" fill="#B9C2E4"/>
<path d="M41.4108 82.7366L4.08518 64.483C3.6609 64.1314 3.32066 63.6899 3.08924 63.1906C2.85782 62.6914 2.74104 62.147 2.74741 61.5971L1.37109 6.49603L41.4108 19.3235V82.7366Z" fill="#A4A9D5"/>
<path d="M44.7738 82.3087C44.5406 82.4501 44.2956 82.5713 44.0416 82.6708C43.7718 82.7751 42.1643 83.3841 41.1679 82.6215C41.0523 82.5306 40.9487 82.4255 40.8596 82.3087C40.8339 61.2442 40.8045 40.1814 40.7715 19.1205C41.0635 19.258 41.3727 19.3558 41.6909 19.4113C42.3129 19.5003 42.9463 19.4705 43.5571 19.3235C43.9286 19.2578 44.2962 19.1717 44.6582 19.0657C44.6839 40.1449 44.7224 61.2259 44.7738 82.3087Z" fill="#B2B8E7"/>
<path d="M43.189 23.378L0.749031 10.6383C0.546145 10.5624 0.367431 10.4335 0.231536 10.2653C0.134647 10.1333 0.0660674 9.98287 0.0300752 9.82335C-0.00591699 9.66382 -0.00854826 9.49862 0.0223385 9.33804V4.72388L43.0624 17.2551L43.189 23.378Z" fill="#B2B8E7"/>
<path d="M106.835 13.0524C106.714 13.2224 106.554 13.361 106.368 13.4565C106.183 13.552 105.976 13.6016 105.767 13.601L43.1891 23.378L43.0625 17.2496L106.984 7.37384V12.2239C107.038 12.5089 106.985 12.8038 106.835 13.0524Z" fill="#BBC9E0"/>
<path d="M106.984 7.41776L43.0625 17.2935L0.0224609 4.72388L57.3871 -0.0164795L106.984 7.41776Z" fill="#C4D0E8"/>
</g>
<defs>
<clipPath id="clip0_492_3867">
<rect width="107" height="83" fill="white"/>
</clipPath>
</defs>
</svg>
