<svg width="18"
    height="17"
    viewBox="0 0 18 17"
    fill="none"
    xmlns="http://www.w3.org/2000/svg">
    <path
        d="M1.86301 15.137H3.16712L11.2014 7.10274L9.89726 5.79863L1.86301 13.8329V15.137ZM15.1836 5.75206L11.2247 1.83973L12.5288 0.535617C12.8858 0.178539 13.3246 0 13.845 0C14.3648 0 14.8032 0.178539 15.1603 0.535617L16.4644 1.83973C16.8215 2.1968 17.0078 2.62778 17.0233 3.13266C17.0388 3.63691 16.868 4.06758 16.511 4.42466L15.1836 5.75206ZM13.8329 7.12603L3.9589 17H0V13.0411L9.87397 3.16712L13.8329 7.12603ZM10.5493 6.45069L9.89726 5.79863L11.2014 7.10274L10.5493 6.45069Z"
        fill="#5A5D72" />
</svg>
