<svg width="13"
    height="17"
    viewBox="0 0 13 17"
    fill="none"
    xmlns="http://www.w3.org/2000/svg">
    <path
        d="M6.26316 10.7368C5.51754 10.7368 4.88377 10.4759 4.36184 9.95395C3.83991 9.43202 3.57895 8.79825 3.57895 8.05263V2.68421C3.57895 1.9386 3.83991 1.30482 4.36184 0.782895C4.88377 0.260965 5.51754 0 6.26316 0C7.00877 0 7.64254 0.260965 8.16447 0.782895C8.6864 1.30482 8.94737 1.9386 8.94737 2.68421V8.05263C8.94737 8.79825 8.6864 9.43202 8.16447 9.95395C7.64254 10.4759 7.00877 10.7368 6.26316 10.7368ZM5.36842 17V14.2487C3.81754 14.0399 2.53509 13.3465 1.52105 12.1684C0.507017 10.9904 0 9.61842 0 8.05263H1.78947C1.78947 9.29035 2.22581 10.3452 3.09847 11.2173C3.97054 12.09 5.02544 12.5263 6.26316 12.5263C7.50088 12.5263 8.55607 12.09 9.42874 11.2173C10.3008 10.3452 10.7368 9.29035 10.7368 8.05263H12.5263C12.5263 9.61842 12.0193 10.9904 11.0053 12.1684C9.99123 13.3465 8.70877 14.0399 7.15789 14.2487V17H5.36842ZM6.26316 8.94737C6.51667 8.94737 6.72932 8.86147 6.9011 8.68968C7.0723 8.51849 7.15789 8.30614 7.15789 8.05263V2.68421C7.15789 2.4307 7.0723 2.21805 6.9011 2.04626C6.72932 1.87507 6.51667 1.78947 6.26316 1.78947C6.00965 1.78947 5.7973 1.87507 5.6261 2.04626C5.45432 2.21805 5.36842 2.4307 5.36842 2.68421V8.05263C5.36842 8.30614 5.45432 8.51849 5.6261 8.68968C5.7973 8.86147 6.00965 8.94737 6.26316 8.94737Z"
        fill="#5A5D72" />
</svg>
