<svg width="18"
    height="18"
    viewBox="0 0 18 18"
    fill="none"
    xmlns="http://www.w3.org/2000/svg">
    <g clip-path="url(#clip0_669_116)">
        <path
            d="M9 18.0006C8.63571 18.0006 8.33057 17.8772 8.08457 17.6303C7.83771 17.3843 7.71429 17.0792 7.71429 16.7149V10.2863H1.28571C0.921429 10.2863 0.615857 10.1629 0.369 9.91604C0.123 9.67004 0 9.3649 0 9.00061C0 8.63632 0.123 8.33075 0.369 8.0839C0.615857 7.8379 0.921429 7.7149 1.28571 7.7149H7.71429V1.28632C7.71429 0.922039 7.83771 0.616468 8.08457 0.369611C8.33057 0.123611 8.63571 0.000610352 9 0.000610352C9.36429 0.000610352 9.66986 0.123611 9.91671 0.369611C10.1627 0.616468 10.2857 0.922039 10.2857 1.28632V7.7149H16.7143C17.0786 7.7149 17.3837 7.8379 17.6297 8.0839C17.8766 8.33075 18 8.63632 18 9.00061C18 9.3649 17.8766 9.67004 17.6297 9.91604C17.3837 10.1629 17.0786 10.2863 16.7143 10.2863H10.2857V16.7149C10.2857 17.0792 10.1627 17.3843 9.91671 17.6303C9.66986 17.8772 9.36429 18.0006 9 18.0006Z"
            fill="#5A5D72" />
    </g>
    <defs>
        <clipPath id="clip0_669_116">
            <rect
                width="18"
                height="18"
                fill="white"
                transform="translate(0 0.000610352)" />
        </clipPath>
    </defs>
</svg>
